<svg width="62" height="22" viewBox="0 0 62 22" fill="none" xmlns="http://www.w3.org/2000/svg">
<path d="M9.53524 13.3403L10.0274 10.106H6.89852V7.99658C6.89852 7.08252 7.3204 6.23877 8.72665 6.23877H10.1681V3.46143C10.1681 3.46143 8.86727 3.21533 7.6368 3.21533C5.0704 3.21533 3.3829 4.79736 3.3829 7.60986V10.106H0.500086V13.3403H3.3829V21.2153H6.89852V13.3403H9.53524Z" fill="#292F36"/>
<path d="M59.359 8.55908C60.0621 8.03174 60.695 7.39893 61.1871 6.66064C60.5543 6.94189 59.816 7.15283 59.0778 7.22314C59.8512 6.76611 60.4137 6.06299 60.695 5.18408C59.9918 5.60596 59.1832 5.92236 58.3746 6.09814C57.6715 5.35986 56.7223 4.93799 55.6676 4.93799C53.6285 4.93799 51.9762 6.59033 51.9762 8.62939C51.9762 8.91064 52.0114 9.19189 52.0817 9.47314C49.0231 9.29736 46.2809 7.8208 44.4528 5.60596C44.1364 6.1333 43.9606 6.76611 43.9606 7.46924C43.9606 8.73486 44.5934 9.85986 45.6129 10.5278C45.0153 10.4927 44.4176 10.3521 43.9254 10.0708V10.106C43.9254 11.8989 45.191 13.3755 46.8785 13.7271C46.5973 13.7974 46.2457 13.8677 45.9293 13.8677C45.6832 13.8677 45.4723 13.8325 45.2262 13.7974C45.6832 15.2739 47.0543 16.3286 48.6715 16.3638C47.4059 17.3481 45.8239 17.9458 44.1012 17.9458C43.7848 17.9458 43.5035 17.9106 43.2223 17.8755C44.8395 18.9302 46.7731 19.5278 48.8825 19.5278C55.6676 19.5278 59.359 13.938 59.359 9.05127C59.359 8.87549 59.359 8.73486 59.359 8.55908Z" fill="#292F36"/>
</svg>
