<svg width="109" height="22" viewBox="0 0 109 22" fill="none" xmlns="http://www.w3.org/2000/svg">
<path d="M9.31893 12.8408L9.81112 9.60645H6.68221V7.49707C6.68221 6.58301 7.10409 5.73926 8.51034 5.73926H9.95175V2.96191C9.95175 2.96191 8.65096 2.71582 7.4205 2.71582C4.85409 2.71582 3.16659 4.29785 3.16659 7.11035V9.60645H0.283777V12.8408H3.16659V20.7158H6.68221V12.8408H9.31893Z" fill="#292F36"/>
<path d="M59.1432 8.05957C59.8463 7.53223 60.4791 6.89941 60.9713 6.16113C60.3385 6.44238 59.6002 6.65332 58.8619 6.72363C59.6354 6.2666 60.1979 5.56348 60.4791 4.68457C59.776 5.10645 58.9674 5.42285 58.1588 5.59863C57.4557 4.86035 56.5065 4.43848 55.4518 4.43848C53.4127 4.43848 51.7604 6.09082 51.7604 8.12988C51.7604 8.41113 51.7955 8.69238 51.8659 8.97363C48.8073 8.79785 46.0651 7.32129 44.2369 5.10645C43.9205 5.63379 43.7448 6.2666 43.7448 6.96973C43.7448 8.23535 44.3776 9.36035 45.3971 10.0283C44.7994 9.99316 44.2018 9.85254 43.7096 9.57129V9.60645C43.7096 11.3994 44.9752 12.876 46.6627 13.2275C46.3815 13.2979 46.0299 13.3682 45.7135 13.3682C45.4674 13.3682 45.2565 13.333 45.0104 13.2979C45.4674 14.7744 46.8385 15.8291 48.4557 15.8643C47.1901 16.8486 45.608 17.4463 43.8854 17.4463C43.569 17.4463 43.2877 17.4111 43.0065 17.376C44.6237 18.4307 46.5573 19.0283 48.6666 19.0283C55.4518 19.0283 59.1432 13.4385 59.1432 8.55176C59.1432 8.37598 59.1432 8.23535 59.1432 8.05957Z" fill="#292F36"/>
<path d="M95.8338 18.4658V7.9541H92.5642V18.4658H95.8338ZM94.1814 6.54785C95.2361 6.54785 96.0799 5.66895 96.0799 4.61426C96.0799 3.59473 95.2361 2.75098 94.1814 2.75098C93.1619 2.75098 92.3181 3.59473 92.3181 4.61426C92.3181 5.66895 93.1619 6.54785 94.1814 6.54785ZM108.033 18.4658H108.068V12.7002C108.068 9.8877 107.435 7.70801 104.131 7.70801C102.549 7.70801 101.494 8.58691 101.037 9.39551H101.002V7.9541H97.8728V18.4658H101.142V13.2627C101.142 11.8916 101.388 10.5908 103.076 10.5908C104.763 10.5908 104.799 12.1377 104.799 13.3682V18.4658H108.033Z" fill="#292F36"/>
</svg>
